<?xml version="1.0" encoding="utf-8"?>
<!-- Generator: Adobe Illustrator 21.1.0, SVG Export Plug-In . SVG Version: 6.00 Build 0)  -->
<svg version="1.1" id="Layer_1" xmlns="http://www.w3.org/2000/svg" xmlns:xlink="http://www.w3.org/1999/xlink" x="0px" y="0px"
	 viewBox="0 0 259.4 149.5" style="enable-background:new 0 0 259.4 149.5;" xml:space="preserve">
<style type="text/css">
	.st0{fill:#FFFFFF;}
</style>
<g>
	<rect x="21.4" y="18.9" class="st0" width="14" height="116.3"/>
	<path class="st0" d="M55.3,42.2h14v93h-14V42.2z M55.3,18.9h14v14h-14V18.9z"/>
	<polygon class="st0" points="93.8,135.3 107.8,135.3 107.8,52.2 117.9,52.2 117.9,42.2 107.8,42.2 107.8,18.9 93.8,18.9 93.8,42.2 
		86.4,42.2 86.4,52.2 93.8,52.2 	"/>
	<path class="st0" d="M188.4,122.1c0,2.2,2.2,3.2,3.3,3.2c1,0,3.3-0.5,3.3-3.2V55.3c0-2.7-2.3-3.2-3.3-3.2c-1.2,0-3.3,1-3.3,3.2
		V122.1z M187.4,135.3c-5.2,0-13-0.3-13-14.3V57.5c0-3.5,0.3-15.3,12.8-15.3h8.8c12.3,0,13,11.3,13,15.3V121c0,14-8,14.3-13.1,14.3
		H187.4z"/>
	<path class="st0" d="M133.7,42.2h12.8v5.3h0.2c2.7-5.1,7.9-7.7,13.5-7.2v13.6c-12.7-0.1-12.5,12-12.5,15.2v66.2h-14V42.2z"/>
	<path class="st0" d="M241,34.5c0-3.2-2.5-5.8-5.7-5.8c-3.2,0-5.7,2.6-5.7,5.8c0,3.2,2.5,5.7,5.7,5.7C238.4,40.2,241,37.7,241,34.5
		 M219.3,34.6c0-8.5,7.2-15.6,16-15.6c8.8,0,16,7.1,16,15.6c0,8.6-7.3,15.6-16,15.6C226.4,50.2,219.3,43.2,219.3,34.6"/>
</g>
</svg>
