<?xml version="1.0" encoding="utf-8"?>
<!-- Generator: Adobe Illustrator 21.1.0, SVG Export Plug-In . SVG Version: 6.00 Build 0)  -->
<svg version="1.1" id="Layer_1" xmlns="http://www.w3.org/2000/svg" xmlns:xlink="http://www.w3.org/1999/xlink" x="0px" y="0px"
	 viewBox="0 0 193 124" style="enable-background:new 0 0 193 124;" xml:space="preserve">
<style type="text/css">
	.st0{fill:#FFFFFF;}
</style>
<g>
	<polygon class="st0" points="53.6,110.5 55.8,110.5 55.8,111.2 54.7,111.2 54.7,113.7 55.6,113.7 55.6,114.4 54.7,114.4 
		54.7,117.8 53.6,117.8 	"/>
	<path class="st0" d="M61.9,116.7c0,0.4-0.1,1.2-0.9,1.2h-0.7c-0.9,0-0.9-0.8-0.9-1.2v-5c0-0.4,0.1-1.2,0.9-1.2H61
		c0.9,0,0.9,0.8,0.9,1.2V116.7z M60.4,116.9c0,0.2,0.2,0.3,0.2,0.3c0.1,0,0.2-0.1,0.2-0.3v-5.5c0-0.2-0.1-0.3-0.2-0.3
		c-0.1,0-0.2,0-0.2,0.3V116.9z"/>
	<path class="st0" d="M68.4,116.7c0,0.4-0.1,1.2-0.9,1.2h-0.7c-0.9,0-0.9-0.8-0.9-1.2v-5c0-0.4,0.1-1.2,0.9-1.2h0.7
		c0.9,0,0.9,0.8,0.9,1.2V116.7z M66.9,116.9c0,0.2,0.2,0.3,0.2,0.3c0.1,0,0.2-0.1,0.2-0.3v-5.5c0-0.2-0.1-0.3-0.2-0.3
		c-0.1,0-0.2,0-0.2,0.3V116.9z"/>
	<path class="st0" d="M72.3,110.5H74c0.3,0,0.9,0,0.9,1v5.3c0,1-0.7,1-0.9,1h-1.6V110.5z M73.5,117.1c0.2,0,0.3-0.1,0.3-0.4v-5.2
		c0-0.3-0.2-0.4-0.3-0.4h-0.1v6H73.5z"/>
	<path class="st0" d="M83.6,117.8H83c-0.4,0-0.6,0-0.7-0.3c-0.3,0.3-0.7,0.3-0.9,0.3c-0.7,0-0.7-0.7-0.7-1.1V115
		c0-0.2,0-0.8,0.7-0.8v-0.1c-0.5,0-0.7-0.3-0.7-0.7v-1.7c0-0.3,0.1-1.2,0.9-1.2h0.6c0.4,0,0.9,0.1,0.9,1.1v0.6h-1v-0.7
		c0-0.1,0-0.3-0.2-0.3c-0.1,0-0.3,0.1-0.3,0.3v2.1c0,0.1,0.1,0.2,0.2,0.2c0.1,0,0.3-0.1,0.3-0.2V113h1v0.7h0.4v0.8h-0.4v2.3
		c0,0.3,0.2,0.4,0.5,0.4V117.8z M82.1,114.4c-0.2,0-0.5,0.2-0.5,0.4v2.1c0,0.1,0.2,0.2,0.2,0.2c0.1,0,0.3-0.1,0.3-0.2V114.4z"/>
	<polygon class="st0" points="91.5,117.8 89.9,117.8 89.3,110.5 90.4,110.5 90.7,115.9 91,110.5 92.6,110.5 93,115.9 93.3,110.5 
		94.4,110.5 93.7,117.8 92.2,117.8 91.8,112.5 	"/>
	<rect x="98.1" y="110.5" class="st0" width="1" height="7.4"/>
	<polygon class="st0" points="103,110.5 104.1,110.5 104.7,114.6 104.7,110.5 105.8,110.5 105.8,117.8 104.7,117.8 104.1,114 
		104.1,117.8 103,117.8 	"/>
	<polygon class="st0" points="109.7,110.5 112.1,110.5 112.1,111.2 110.7,111.2 110.7,113.6 112.1,113.6 112.1,114.3 110.7,114.3 
		110.7,117.1 112.2,117.1 112.2,117.8 109.7,117.8 	"/>
	<rect x="10.2" y="7.9" class="st0" width="10.8" height="90.1"/>
	<path class="st0" d="M36.5,7.9h10.8v10.8H36.5V7.9z M36.5,25.9h10.8v72H36.5V25.9z"/>
	<path class="st0" d="M138.8,98c-4,0-10-0.3-10-11.1V37.8c0-2.7,0.3-11.8,9.9-11.8h6.8c9.5,0,10,8.7,10,11.8v49.1
		c0,10.8-6.2,11.1-10.2,11.1H138.8z M139.6,87.8c0,1.7,1.7,2.4,2.6,2.4c0.8,0,2.6-0.4,2.6-2.4V36.1c0-2.1-1.8-2.4-2.6-2.4
		c-0.9,0-2.6,0.8-2.6,2.4V87.8z"/>
	<path class="st0" d="M97.2,25.9h9.9V30h0.2c2.1-3.9,6.1-6,10.4-5.5V35c-9.9-0.1-9.7,9.3-9.7,11.7V98H97.2V25.9z"/>
	<polygon class="st0" points="66.4,98 77.2,98 77.2,33.7 85,33.7 85,25.9 77.2,25.9 77.2,7.9 66.4,7.9 66.4,25.9 60.6,25.9 
		60.6,33.7 66.4,33.7 	"/>
	<path class="st0" d="M163.5,20c0-6.6,5.6-12.1,12.4-12.1c6.8,0,12.4,5.5,12.4,12.1c0,6.7-5.6,12.1-12.4,12.1
		C169,32.1,163.5,26.7,163.5,20 M180.3,20c0-2.4-2-4.5-4.4-4.5c-2.5,0-4.4,2-4.4,4.5c0,2.4,1.9,4.4,4.4,4.4
		C178.3,24.4,180.3,22.4,180.3,20"/>
</g>
</svg>
