<svg id="Layer_1" xmlns="http://www.w3.org/2000/svg" viewBox="0 0 259.4 149.5"><style>.st0{fill:#fff}</style><path class="st0" d="M21.4 18.9h14v116.3h-14zm33.9 23.3h14v93h-14v-93zm0-23.3h14v14h-14v-14zm38.5 116.4h14V52.2h10.1v-10h-10.1V18.9h-14v23.3h-7.4v10h7.4zm94.6-13.2c0 2.2 2.2 3.2 3.3 3.2 1 0 3.3-.5 3.3-3.2V55.3c0-2.7-2.3-3.2-3.3-3.2-1.2 0-3.3 1-3.3 3.2v66.8zm-1 13.2c-5.2 0-13-.3-13-14.3V57.5c0-3.5.3-15.3 12.8-15.3h8.8c12.3 0 13 11.3 13 15.3V121c0 14-8 14.3-13.1 14.3h-8.5zm-53.7-93.1h12.8v5.3h.2c2.7-5.1 7.9-7.7 13.5-7.2v13.6c-12.7-.1-12.5 12-12.5 15.2v66.2h-14V42.2zM241 34.5c0-3.2-2.5-5.8-5.7-5.8s-5.7 2.6-5.7 5.8c0 3.2 2.5 5.7 5.7 5.7 3.1 0 5.7-2.5 5.7-5.7m-21.7.1c0-8.5 7.2-15.6 16-15.6s16 7.1 16 15.6c0 8.6-7.3 15.6-16 15.6-8.9 0-16-7-16-15.6"/></svg>