<svg id="Layer_1" xmlns="http://www.w3.org/2000/svg" viewBox="0 0 193 124"><style>.st0{fill:#fff}</style><path class="st0" d="M53.6 110.5h2.2v.7h-1.1v2.5h.9v.7h-.9v3.4h-1.1zm8.3 6.2c0 .4-.1 1.2-.9 1.2h-.7c-.9 0-.9-.8-.9-1.2v-5c0-.4.1-1.2.9-1.2h.7c.9 0 .9.8.9 1.2v5zm-1.5.2c0 .2.2.3.2.3.1 0 .2-.1.2-.3v-5.5c0-.2-.1-.3-.2-.3s-.2 0-.2.3v5.5zm8-.2c0 .4-.1 1.2-.9 1.2h-.7c-.9 0-.9-.8-.9-1.2v-5c0-.4.1-1.2.9-1.2h.7c.9 0 .9.8.9 1.2v5zm-1.5.2c0 .2.2.3.2.3.1 0 .2-.1.2-.3v-5.5c0-.2-.1-.3-.2-.3s-.2 0-.2.3v5.5zm5.4-6.4H74c.3 0 .9 0 .9 1v5.3c0 1-.7 1-.9 1h-1.6v-7.3zm1.2 6.6c.2 0 .3-.1.3-.4v-5.2c0-.3-.2-.4-.3-.4h-.1v6h.1zm10.1.7H83c-.4 0-.6 0-.7-.3-.3.3-.7.3-.9.3-.7 0-.7-.7-.7-1.1V115c0-.2 0-.8.7-.8v-.1c-.5 0-.7-.3-.7-.7v-1.7c0-.3.1-1.2.9-1.2h.6c.4 0 .9.1.9 1.1v.6h-1v-.7c0-.1 0-.3-.2-.3-.1 0-.3.1-.3.3v2.1c0 .1.1.2.2.2s.3-.1.3-.2v-.6h1v.7h.4v.8h-.4v2.3c0 .3.2.4.5.4v.6zm-1.5-3.4c-.2 0-.5.2-.5.4v2.1c0 .1.2.2.2.2.1 0 .3-.1.3-.2v-2.5zm9.4 3.4h-1.6l-.6-7.3h1.1l.3 5.4.3-5.4h1.6l.4 5.4.3-5.4h1.1l-.7 7.3h-1.5l-.4-5.3zm6.6-7.3h1v7.4h-1zm4.9 0h1.1l.6 4.1v-4.1h1.1v7.3h-1.1l-.6-3.8v3.8H103zm6.7 0h2.4v.7h-1.4v2.4h1.4v.7h-1.4v2.8h1.5v.7h-2.5zM10.2 7.9H21V98H10.2zm26.3 0h10.8v10.8H36.5V7.9zm0 18h10.8v72H36.5v-72zM138.8 98c-4 0-10-.3-10-11.1V37.8c0-2.7.3-11.8 9.9-11.8h6.8c9.5 0 10 8.7 10 11.8v49.1c0 10.8-6.2 11.1-10.2 11.1h-6.5zm.8-10.2c0 1.7 1.7 2.4 2.6 2.4.8 0 2.6-.4 2.6-2.4V36.1c0-2.1-1.8-2.4-2.6-2.4-.9 0-2.6.8-2.6 2.4v51.7zM97.2 25.9h9.9V30h.2c2.1-3.9 6.1-6 10.4-5.5V35c-9.9-.1-9.7 9.3-9.7 11.7V98H97.2V25.9zM66.4 98h10.8V33.7H85v-7.8h-7.8v-18H66.4v18h-5.8v7.8h5.8zm97.1-78c0-6.6 5.6-12.1 12.4-12.1 6.8 0 12.4 5.5 12.4 12.1 0 6.7-5.6 12.1-12.4 12.1-6.9 0-12.4-5.4-12.4-12.1m16.8 0c0-2.4-2-4.5-4.4-4.5-2.5 0-4.4 2-4.4 4.5 0 2.4 1.9 4.4 4.4 4.4 2.4 0 4.4-2 4.4-4.4"/></svg>